<svg width="53" height="53" viewBox="0 0 53 53" fill="none" xmlns="http://www.w3.org/2000/svg">
<circle cx="26.5" cy="26.5" r="26.5" fill="#CC9933"/>
<path d="M10.1506 9.02343C10.0014 9.02343 9.8583 9.08271 9.75281 9.18822C9.64732 9.29373 9.58806 9.43684 9.58806 9.58605V14.9118C9.58593 16.2033 9.58806 17.4798 11.2798 18.0446C11.2734 21.5823 11.1328 24.438 10.9986 26.8462C10.8601 29.3119 10.7152 30.9465 10.7152 31.5773V32.14C10.7152 33.2695 11.2777 34.3947 12.4069 34.3947C13.5341 34.3947 14.0966 33.2673 14.0966 32.14V31.5795C14.0966 30.9465 13.9517 29.3119 13.8153 26.8441C13.6386 23.9134 13.5448 20.9784 13.5341 18.0424C15.2258 17.4798 15.228 16.2033 15.2258 14.9097V9.58819C15.2258 9.4384 15.1663 9.29476 15.0605 9.18884C14.9546 9.08293 14.8109 9.02343 14.6612 9.02343C14.5114 9.02343 14.3678 9.08293 14.2619 9.18884C14.1561 9.29476 14.0966 9.4384 14.0966 9.58819V15.2251C14.1136 15.9923 12.9524 15.9923 12.9694 15.2251V9.58605C12.9694 9.43656 12.9101 9.29318 12.8044 9.18747C12.6987 9.08176 12.5553 9.02237 12.4059 9.02237C12.2564 9.02237 12.1131 9.08176 12.0074 9.18747C11.9017 9.29318 11.8423 9.43656 11.8423 9.58605V15.2251C11.8594 15.9923 10.6981 15.9923 10.7131 15.2251V9.58605C10.7133 9.51199 10.699 9.4386 10.6709 9.37009C10.6427 9.30159 10.6013 9.23931 10.5491 9.18684C10.4968 9.13437 10.4347 9.09274 10.3663 9.06433C10.2979 9.03592 10.2246 9.0213 10.1506 9.0213V9.02343ZM39.1831 9.02343C37.2101 9.02343 35.5184 11.4487 35.5184 14.0956C35.5205 16.1734 36.5432 17.7292 38.0539 18.3706C38.0379 21.1971 37.9455 24.0226 37.7769 26.8441C37.6384 29.3119 37.4935 30.9465 37.4935 31.5795V32.14C37.4935 33.2695 38.056 34.3947 39.1831 34.3947C40.3124 34.3947 40.8749 33.2673 40.8749 32.14V31.5795C40.8749 30.9465 40.73 29.3119 40.5915 26.8441C40.4225 24.0212 40.3301 21.1943 40.3145 18.3664C41.823 17.727 42.8458 16.1713 42.85 14.0956C42.85 11.4487 41.1561 9.02343 39.1853 9.02343H39.1831ZM25.9367 12.9661C23.7268 13.0157 21.624 13.9286 20.0786 15.5095C18.5331 17.0904 17.6678 19.2135 17.6678 21.4246C17.6678 23.6356 18.5331 25.7588 20.0786 27.3396C21.624 28.9205 23.7268 29.8335 25.9367 29.8831C30.6072 29.8831 34.3934 26.0896 34.3934 21.4246C34.3928 19.181 33.5014 17.0296 31.9151 15.4434C30.3288 13.8571 28.1776 12.9661 25.9346 12.9661H25.9367ZM29.4651 16.1457C29.5339 16.1922 29.5916 16.2533 29.6341 16.3246C29.6766 16.3959 29.7028 16.4757 29.711 16.5583C29.7191 16.6409 29.7089 16.7243 29.6812 16.8026C29.6534 16.8808 29.6087 16.952 29.5504 17.011L21.5284 25.0411C21.4694 25.0995 21.3982 25.1442 21.32 25.172C21.2418 25.1997 21.1584 25.2099 21.0758 25.2018C20.9932 25.1936 20.9134 25.1674 20.8421 25.1249C20.7708 25.0824 20.7098 25.0247 20.6633 24.9559C19.8473 23.7346 19.4793 22.2684 19.6218 20.8064C19.7644 19.3444 20.4087 17.9769 21.4453 16.9364C22.485 15.8966 23.8531 15.2497 25.3163 15.106C26.7795 14.9622 28.2472 15.3304 29.4694 16.1478L29.4651 16.1457ZM25.9367 16.199C24.49 16.199 23.1839 16.7872 22.2379 17.7334C21.753 18.2179 21.3685 18.7933 21.1063 19.4267C20.8442 20.0601 20.7096 20.739 20.7102 21.4246C20.7102 22.1982 20.9211 23.0272 21.2492 23.7198L28.2357 16.7382C27.52 16.3876 26.7337 16.2054 25.9367 16.2054V16.199ZM31.2144 17.8954C32.0311 19.1176 32.399 20.5853 32.2552 22.0483C32.1115 23.5114 31.465 24.8793 30.4261 25.9191C29.3857 26.9559 28.0186 27.6004 26.5569 27.743C25.0953 27.8856 23.6293 27.5175 22.4083 26.7013C22.3396 26.6548 22.2819 26.5937 22.2394 26.5224C22.1969 26.4511 22.1706 26.3713 22.1625 26.2887C22.1544 26.2061 22.1645 26.1227 22.1923 26.0444C22.2201 25.9662 22.2647 25.895 22.3231 25.836L30.3494 17.808C30.4085 17.75 30.4797 17.7056 30.5579 17.6781C30.636 17.6505 30.7193 17.6404 30.8018 17.6486C30.8843 17.6567 30.964 17.6828 31.0353 17.7251C31.1065 17.7674 31.1677 17.8248 31.2144 17.8933V17.8954ZM30.6263 19.1272L23.642 26.1152C24.3598 26.4562 25.1422 26.6393 25.9367 26.6523C27.3728 26.6523 28.6789 26.0683 29.6249 25.1242C30.3984 24.3553 30.9111 23.3629 31.0908 22.287C31.2705 21.211 31.108 20.1059 30.6263 19.1272ZM10.7131 35.5221C10.2644 35.5221 9.83407 35.7004 9.51681 36.0177C9.19954 36.335 9.0213 36.7654 9.0213 37.2142C9.0213 37.663 9.19954 38.0934 9.51681 38.4107C9.83407 38.7281 10.2644 38.9063 10.7131 38.9063H11.5227L13.0504 41.4488C13.3466 41.939 13.5895 42.297 13.9581 42.5442C14.348 42.8042 14.7592 42.8511 15.2237 42.8511H36.6476C37.1143 42.8511 37.5233 42.8042 37.9133 42.5442C38.284 42.297 38.5269 41.9411 38.8209 41.4488L40.3507 38.9042H41.1604C41.6088 38.9042 42.0388 38.726 42.3559 38.4089C42.673 38.0918 42.8511 37.6616 42.8511 37.2131C42.8511 36.7647 42.673 36.3345 42.3559 36.0174C42.0388 35.7003 41.6088 35.5221 41.1604 35.5221H10.7109H10.7131Z" fill="white"/>
</svg>
